<svg id="svg" version="1.1" xmlns="http://www.w3.org/2000/svg" xmlns:xlink="http://www.w3.org/1999/xlink" width="400" height="405.75539568345323" viewBox="0, 0, 400,405.75539568345323">
    <g id="svgg">
        <path id="path1" d="M203.779 24.939 C 192.370 28.671,190.993 31.962,191.290 54.800 C 191.527 73.121,192.253 74.340,200.904 70.959 C 208.254 68.087,206.925 67.507,248.000 91.531 C 253.830 94.941,264.090 100.885,270.800 104.740 C 277.510 108.595,285.790 113.355,289.200 115.317 C 292.610 117.280,297.290 119.901,299.600 121.143 L 303.800 123.400 307.800 123.400 C 314.703 123.400,348.763 113.302,350.572 110.718 C 352.508 107.954,350.756 105.992,341.673 100.752 C 337.783 98.508,327.760 92.710,319.400 87.867 C 311.040 83.024,300.600 77.002,296.200 74.485 C 291.800 71.969,284.600 67.791,280.200 65.201 C 272.997 60.961,262.582 54.974,238.600 41.290 C 234.200 38.779,227.000 34.593,222.600 31.988 C 210.325 24.719,207.586 23.693,203.779 24.939 M163.200 47.958 C 162.210 48.355,158.790 50.201,155.600 52.062 C 152.410 53.922,147.011 57.055,143.602 59.022 C 136.539 63.099,133.285 65.924,132.473 68.683 C 131.659 71.451,131.763 234.670,132.581 237.417 C 133.873 241.757,134.639 242.321,155.200 254.084 C 163.450 258.803,175.690 265.881,182.400 269.811 C 207.834 284.708,205.317 284.456,223.400 273.915 C 227.360 271.606,233.480 268.094,237.000 266.109 C 240.520 264.124,246.640 260.588,250.600 258.252 C 254.560 255.915,261.540 251.893,266.111 249.313 C 282.274 240.190,280.739 245.786,280.775 195.826 C 280.807 150.591,281.928 154.933,268.200 147.138 C 264.460 145.014,258.250 141.439,254.400 139.193 C 210.988 113.866,209.037 112.839,205.303 113.351 C 202.716 113.706,201.039 114.543,189.980 121.004 C 175.929 129.212,173.958 129.695,171.718 125.476 C 170.794 123.735,170.137 96.738,170.775 86.749 C 171.341 77.890,171.331 53.087,170.760 51.032 C 169.777 47.490,167.093 46.399,163.200 47.958 M107.000 79.943 C 105.680 80.571,99.200 84.201,92.600 88.009 C 86.000 91.817,77.000 96.991,72.600 99.507 C 58.544 107.544,56.351 109.325,55.186 113.650 C 54.932 114.594,54.829 144.680,54.896 198.457 L 55.000 281.800 56.196 283.959 C 57.803 286.861,59.417 288.002,72.400 295.414 C 78.450 298.868,85.290 302.826,87.600 304.209 C 89.910 305.592,94.140 308.061,97.000 309.694 C 104.786 314.142,133.352 330.577,143.600 336.506 C 207.553 373.502,202.906 370.963,206.600 370.925 C 209.724 370.893,210.134 370.700,223.800 362.818 C 230.180 359.138,236.660 355.433,238.200 354.585 C 239.740 353.737,242.170 352.331,243.600 351.460 C 246.413 349.746,249.382 348.029,283.800 328.220 C 296.340 321.003,311.460 312.267,317.400 308.808 C 323.340 305.348,332.520 300.039,337.800 297.009 C 352.938 288.324,354.722 285.869,348.310 282.553 C 346.284 281.506,311.149 271.585,308.577 271.335 C 303.821 270.871,304.373 270.599,272.200 289.277 C 262.520 294.897,252.710 300.538,250.400 301.812 C 248.090 303.087,240.890 307.219,234.400 310.995 C 204.322 328.492,207.653 327.807,193.164 319.470 C 188.454 316.760,178.570 311.072,171.200 306.831 C 163.830 302.589,153.390 296.555,148.000 293.421 C 142.610 290.287,137.120 287.119,135.800 286.382 C 129.580 282.906,101.635 266.586,100.210 265.597 C 96.059 262.716,94.996 260.477,94.194 252.920 C 93.550 246.848,93.397 181.798,93.956 152.000 C 94.328 132.227,93.900 133.238,104.622 126.787 C 115.716 120.112,115.281 121.127,115.686 101.000 C 116.139 78.432,115.160 76.059,107.000 79.943 M210.715 159.072 C 211.532 159.413,217.048 162.479,222.974 165.887 C 243.441 177.658,242.055 175.585,242.306 194.800 C 242.601 217.318,242.398 217.897,232.135 223.907 C 204.464 240.114,208.078 239.677,189.594 229.042 C 174.835 220.550,173.314 219.501,171.797 216.761 L 170.600 214.600 170.483 198.662 C 170.333 178.377,170.461 177.872,176.786 173.628 C 178.807 172.272,198.455 160.993,201.487 159.449 C 204.449 157.940,207.681 157.808,210.715 159.072 " stroke="none" fill="hsl(266,20%,80%)" fill-rule="evenodd"></path>
    </g>
</svg>